<svg width="650" height="156" viewBox="0 0 650 156" fill="none" xmlns="http://www.w3.org/2000/svg">
<mask id="path-1-outside-1_160_1910" maskUnits="userSpaceOnUse" x="0" y="14.5527" width="637" height="142" fill="black">
<rect fill="white" y="14.5527" width="637" height="142"/>
<path d="M77.2797 143.806L73.3847 99.4371L37.6521 102.316L33.5878 141.774L16.6529 143.468L7 31.0202L45.6115 28.4799L39.1763 89.2761L72.538 89.6148L67.6269 31.3589L106.238 28.8186L94.2146 142.113L77.2797 143.806Z"/>
<path d="M171.362 145.161C162.443 145.161 154.879 144.089 148.669 141.944C142.46 139.911 137.436 137.315 133.597 134.154C132.581 129.186 131.847 124.388 131.396 119.759C130.944 115.017 130.719 110.445 130.719 106.042C130.719 95.9936 131.735 86.623 133.767 77.9298C135.799 69.2365 138.509 61.39 141.896 54.3903C145.395 47.2776 149.234 41.1811 153.411 36.1006C157.589 31.0202 161.766 27.0687 165.943 24.2462C174.41 27.7461 182.088 33.3911 188.974 41.1811C195.974 48.9711 201.506 58.3982 205.571 69.4623C209.748 80.4135 211.837 92.6067 211.837 106.042C211.837 114.622 210.764 121.848 208.619 127.718C206.474 133.476 202.466 137.823 196.595 140.758C190.837 143.694 182.426 145.161 171.362 145.161ZM161.54 128.734C166.282 128.734 171.023 128.396 175.765 127.718C180.507 127.041 184.684 126.081 188.297 124.839C189.539 119.646 190.329 115.074 190.668 111.122C191.12 107.171 191.345 102.937 191.345 98.421C191.345 89.5019 190.612 81.3167 189.144 73.8654C187.676 66.4141 185.531 59.6966 182.709 53.7129C175.37 60.4868 169.104 67.9946 163.911 76.2363C158.717 84.365 154.71 92.8325 151.887 101.639C149.178 110.445 147.823 119.082 147.823 127.549C149.855 128.001 152 128.339 154.258 128.565C156.629 128.678 159.056 128.734 161.54 128.734Z"/>
<path d="M275.997 145.5C272.046 145.5 267.36 145.331 261.941 144.992C256.522 144.653 251.385 144.145 246.531 143.468L236.878 34.4071C240.378 33.2782 244.781 32.1492 250.087 31.0202C255.506 29.8912 261.264 28.9315 267.36 28.1412C273.457 27.2381 279.271 26.7865 284.803 26.7865C290.787 26.7865 296.714 27.4074 302.585 28.6493C308.569 29.8912 313.931 31.9798 318.673 34.9152C319.689 37.9635 320.423 40.8988 320.875 43.7213C321.326 46.4309 321.552 49.0276 321.552 51.5114C321.552 57.8337 320.141 63.4222 317.318 68.2769C314.609 73.0187 310.94 77.1395 306.311 80.6393C312.972 85.8327 318.052 91.5906 321.552 97.9129C325.165 104.235 326.971 109.993 326.971 115.186C326.971 120.606 325.278 125.63 321.891 130.259C318.617 134.774 313.254 138.444 305.803 141.266C298.351 144.089 288.416 145.5 275.997 145.5ZM269.393 86.2279C277.296 83.0667 283.392 78.7765 287.682 73.3574C291.972 67.9382 294.118 62.6319 294.118 57.4386C294.118 54.0516 293.327 50.4388 291.747 46.6003C290.279 42.7617 288.077 39.8263 285.142 37.7941C283.674 37.7941 281.981 38.0199 280.062 38.4715C278.255 38.8102 276.336 39.2618 274.304 39.8263L269.393 86.2279ZM281.078 133.476C281.981 133.476 283.279 133.476 284.973 133.476C286.666 133.363 288.36 133.25 290.053 133.137C291.747 132.912 292.932 132.686 293.609 132.46C294.964 129.75 296.263 126.251 297.505 121.96C298.859 117.557 299.537 112.872 299.537 107.904C299.537 104.405 299.085 100.961 298.182 97.5742C297.392 94.1872 295.98 90.9132 293.948 87.752C290.11 89.5584 285.989 91.139 281.586 92.4938C277.296 93.7356 272.892 94.8646 268.377 95.8807L264.651 130.936C267.473 131.726 270.239 132.347 272.949 132.799C275.771 133.25 278.481 133.476 281.078 133.476Z"/>
<path d="M394.905 145.5C390.954 145.5 386.268 145.331 380.849 144.992C375.43 144.653 370.293 144.145 365.438 143.468L355.786 34.4071C359.285 33.2782 363.689 32.1492 368.995 31.0202C374.414 29.8912 380.172 28.9315 386.268 28.1412C392.365 27.2381 398.179 26.7865 403.711 26.7865C409.695 26.7865 415.622 27.4074 421.493 28.6493C427.477 29.8912 432.839 31.9798 437.581 34.9152C438.597 37.9635 439.331 40.8988 439.783 43.7213C440.234 46.4309 440.46 49.0276 440.46 51.5114C440.46 57.8337 439.049 63.4222 436.226 68.2769C433.517 73.0187 429.847 77.1395 425.219 80.6393C431.88 85.8327 436.96 91.5906 440.46 97.9129C444.073 104.235 445.879 109.993 445.879 115.186C445.879 120.606 444.186 125.63 440.799 130.259C437.525 134.774 432.162 138.444 424.711 141.266C417.259 144.089 407.324 145.5 394.905 145.5ZM388.301 86.2279C396.203 83.0667 402.3 78.7765 406.59 73.3574C410.88 67.9382 413.025 62.6319 413.025 57.4386C413.025 54.0516 412.235 50.4388 410.655 46.6003C409.187 42.7617 406.985 39.8263 404.05 37.7941C402.582 37.7941 400.889 38.0199 398.97 38.4715C397.163 38.8102 395.244 39.2618 393.212 39.8263L388.301 86.2279ZM399.986 133.476C400.889 133.476 402.187 133.476 403.881 133.476C405.574 133.363 407.268 133.25 408.961 133.137C410.655 132.912 411.84 132.686 412.517 132.46C413.872 129.75 415.171 126.251 416.412 121.96C417.767 117.557 418.445 112.872 418.445 107.904C418.445 104.405 417.993 100.961 417.09 97.5742C416.3 94.1872 414.888 90.9132 412.856 87.752C409.018 89.5584 404.897 91.139 400.494 92.4938C396.203 93.7356 391.8 94.8646 387.284 95.8807L383.559 130.936C386.381 131.726 389.147 132.347 391.857 132.799C394.679 133.25 397.389 133.476 399.986 133.476Z"/>
<path d="M481.806 142.621L473.847 31.0202L548.53 28.6493L548.022 39.9957L512.289 44.2294L507.886 79.2846L543.957 78.9459L544.804 94.1872L506.531 91.3083L501.959 129.073L548.699 123.654L548.022 141.097L481.806 142.621Z"/>
<path d="M587.559 148.718L579.43 137.71C585.188 134.436 589.083 131.388 591.116 128.565C593.148 125.743 594.164 122.807 594.164 119.759C594.164 116.485 593.317 113.38 591.624 110.445C589.93 107.396 587.841 104.348 585.358 101.3C582.874 98.2516 580.334 95.034 577.737 91.647C575.253 88.1471 573.165 84.365 571.471 80.3006C569.778 76.1234 568.931 71.551 568.931 66.5834C568.931 57.2128 571.302 49.0276 576.043 42.0278C580.898 34.9152 586.995 28.4235 594.333 22.5527L625.324 43.2133C619.227 47.0519 614.203 51.2856 610.252 55.9144C606.3 60.5433 604.325 65.6238 604.325 71.1558C604.325 74.8815 605.171 78.3814 606.865 81.6554C608.671 84.9295 610.647 88.1471 612.792 91.3083C615.05 94.3566 617.026 97.4613 618.719 100.622C620.526 103.784 621.429 107.171 621.429 110.783C621.429 119.702 618.324 127.267 612.115 133.476C606.018 139.573 597.833 144.653 587.559 148.718Z"/>
</mask>
<path d="M77.2797 143.806L73.3847 99.4371L37.6521 102.316L33.5878 141.774L16.6529 143.468L7 31.0202L45.6115 28.4799L39.1763 89.2761L72.538 89.6148L67.6269 31.3589L106.238 28.8186L94.2146 142.113L77.2797 143.806Z" fill="black"/>
<path d="M171.362 145.161C162.443 145.161 154.879 144.089 148.669 141.944C142.46 139.911 137.436 137.315 133.597 134.154C132.581 129.186 131.847 124.388 131.396 119.759C130.944 115.017 130.719 110.445 130.719 106.042C130.719 95.9936 131.735 86.623 133.767 77.9298C135.799 69.2365 138.509 61.39 141.896 54.3903C145.395 47.2776 149.234 41.1811 153.411 36.1006C157.589 31.0202 161.766 27.0687 165.943 24.2462C174.41 27.7461 182.088 33.3911 188.974 41.1811C195.974 48.9711 201.506 58.3982 205.571 69.4623C209.748 80.4135 211.837 92.6067 211.837 106.042C211.837 114.622 210.764 121.848 208.619 127.718C206.474 133.476 202.466 137.823 196.595 140.758C190.837 143.694 182.426 145.161 171.362 145.161ZM161.54 128.734C166.282 128.734 171.023 128.396 175.765 127.718C180.507 127.041 184.684 126.081 188.297 124.839C189.539 119.646 190.329 115.074 190.668 111.122C191.12 107.171 191.345 102.937 191.345 98.421C191.345 89.5019 190.612 81.3167 189.144 73.8654C187.676 66.4141 185.531 59.6966 182.709 53.7129C175.37 60.4868 169.104 67.9946 163.911 76.2363C158.717 84.365 154.71 92.8325 151.887 101.639C149.178 110.445 147.823 119.082 147.823 127.549C149.855 128.001 152 128.339 154.258 128.565C156.629 128.678 159.056 128.734 161.54 128.734Z" fill="black"/>
<path d="M275.997 145.5C272.046 145.5 267.36 145.331 261.941 144.992C256.522 144.653 251.385 144.145 246.531 143.468L236.878 34.4071C240.378 33.2782 244.781 32.1492 250.087 31.0202C255.506 29.8912 261.264 28.9315 267.36 28.1412C273.457 27.2381 279.271 26.7865 284.803 26.7865C290.787 26.7865 296.714 27.4074 302.585 28.6493C308.569 29.8912 313.931 31.9798 318.673 34.9152C319.689 37.9635 320.423 40.8988 320.875 43.7213C321.326 46.4309 321.552 49.0276 321.552 51.5114C321.552 57.8337 320.141 63.4222 317.318 68.2769C314.609 73.0187 310.94 77.1395 306.311 80.6393C312.972 85.8327 318.052 91.5906 321.552 97.9129C325.165 104.235 326.971 109.993 326.971 115.186C326.971 120.606 325.278 125.63 321.891 130.259C318.617 134.774 313.254 138.444 305.803 141.266C298.351 144.089 288.416 145.5 275.997 145.5ZM269.393 86.2279C277.296 83.0667 283.392 78.7765 287.682 73.3574C291.972 67.9382 294.118 62.6319 294.118 57.4386C294.118 54.0516 293.327 50.4388 291.747 46.6003C290.279 42.7617 288.077 39.8263 285.142 37.7941C283.674 37.7941 281.981 38.0199 280.062 38.4715C278.255 38.8102 276.336 39.2618 274.304 39.8263L269.393 86.2279ZM281.078 133.476C281.981 133.476 283.279 133.476 284.973 133.476C286.666 133.363 288.36 133.25 290.053 133.137C291.747 132.912 292.932 132.686 293.609 132.46C294.964 129.75 296.263 126.251 297.505 121.96C298.859 117.557 299.537 112.872 299.537 107.904C299.537 104.405 299.085 100.961 298.182 97.5742C297.392 94.1872 295.98 90.9132 293.948 87.752C290.11 89.5584 285.989 91.139 281.586 92.4938C277.296 93.7356 272.892 94.8646 268.377 95.8807L264.651 130.936C267.473 131.726 270.239 132.347 272.949 132.799C275.771 133.25 278.481 133.476 281.078 133.476Z" fill="black"/>
<path d="M394.905 145.5C390.954 145.5 386.268 145.331 380.849 144.992C375.43 144.653 370.293 144.145 365.438 143.468L355.786 34.4071C359.285 33.2782 363.689 32.1492 368.995 31.0202C374.414 29.8912 380.172 28.9315 386.268 28.1412C392.365 27.2381 398.179 26.7865 403.711 26.7865C409.695 26.7865 415.622 27.4074 421.493 28.6493C427.477 29.8912 432.839 31.9798 437.581 34.9152C438.597 37.9635 439.331 40.8988 439.783 43.7213C440.234 46.4309 440.46 49.0276 440.46 51.5114C440.46 57.8337 439.049 63.4222 436.226 68.2769C433.517 73.0187 429.847 77.1395 425.219 80.6393C431.88 85.8327 436.96 91.5906 440.46 97.9129C444.073 104.235 445.879 109.993 445.879 115.186C445.879 120.606 444.186 125.63 440.799 130.259C437.525 134.774 432.162 138.444 424.711 141.266C417.259 144.089 407.324 145.5 394.905 145.5ZM388.301 86.2279C396.203 83.0667 402.3 78.7765 406.59 73.3574C410.88 67.9382 413.025 62.6319 413.025 57.4386C413.025 54.0516 412.235 50.4388 410.655 46.6003C409.187 42.7617 406.985 39.8263 404.05 37.7941C402.582 37.7941 400.889 38.0199 398.97 38.4715C397.163 38.8102 395.244 39.2618 393.212 39.8263L388.301 86.2279ZM399.986 133.476C400.889 133.476 402.187 133.476 403.881 133.476C405.574 133.363 407.268 133.25 408.961 133.137C410.655 132.912 411.84 132.686 412.517 132.46C413.872 129.75 415.171 126.251 416.412 121.96C417.767 117.557 418.445 112.872 418.445 107.904C418.445 104.405 417.993 100.961 417.09 97.5742C416.3 94.1872 414.888 90.9132 412.856 87.752C409.018 89.5584 404.897 91.139 400.494 92.4938C396.203 93.7356 391.8 94.8646 387.284 95.8807L383.559 130.936C386.381 131.726 389.147 132.347 391.857 132.799C394.679 133.25 397.389 133.476 399.986 133.476Z" fill="black"/>
<path d="M481.806 142.621L473.847 31.0202L548.53 28.6493L548.022 39.9957L512.289 44.2294L507.886 79.2846L543.957 78.9459L544.804 94.1872L506.531 91.3083L501.959 129.073L548.699 123.654L548.022 141.097L481.806 142.621Z" fill="black"/>
<path d="M587.559 148.718L579.43 137.71C585.188 134.436 589.083 131.388 591.116 128.565C593.148 125.743 594.164 122.807 594.164 119.759C594.164 116.485 593.317 113.38 591.624 110.445C589.93 107.396 587.841 104.348 585.358 101.3C582.874 98.2516 580.334 95.034 577.737 91.647C575.253 88.1471 573.165 84.365 571.471 80.3006C569.778 76.1234 568.931 71.551 568.931 66.5834C568.931 57.2128 571.302 49.0276 576.043 42.0278C580.898 34.9152 586.995 28.4235 594.333 22.5527L625.324 43.2133C619.227 47.0519 614.203 51.2856 610.252 55.9144C606.3 60.5433 604.325 65.6238 604.325 71.1558C604.325 74.8815 605.171 78.3814 606.865 81.6554C608.671 84.9295 610.647 88.1471 612.792 91.3083C615.05 94.3566 617.026 97.4613 618.719 100.622C620.526 103.784 621.429 107.171 621.429 110.783C621.429 119.702 618.324 127.267 612.115 133.476C606.018 139.573 597.833 144.653 587.559 148.718Z" fill="black"/>
<path d="M77.2797 143.806L73.3847 99.4371L37.6521 102.316L33.5878 141.774L16.6529 143.468L7 31.0202L45.6115 28.4799L39.1763 89.2761L72.538 89.6148L67.6269 31.3589L106.238 28.8186L94.2146 142.113L77.2797 143.806Z" stroke="black" stroke-width="12" mask="url(#path-1-outside-1_160_1910)"/>
<path d="M171.362 145.161C162.443 145.161 154.879 144.089 148.669 141.944C142.46 139.911 137.436 137.315 133.597 134.154C132.581 129.186 131.847 124.388 131.396 119.759C130.944 115.017 130.719 110.445 130.719 106.042C130.719 95.9936 131.735 86.623 133.767 77.9298C135.799 69.2365 138.509 61.39 141.896 54.3903C145.395 47.2776 149.234 41.1811 153.411 36.1006C157.589 31.0202 161.766 27.0687 165.943 24.2462C174.41 27.7461 182.088 33.3911 188.974 41.1811C195.974 48.9711 201.506 58.3982 205.571 69.4623C209.748 80.4135 211.837 92.6067 211.837 106.042C211.837 114.622 210.764 121.848 208.619 127.718C206.474 133.476 202.466 137.823 196.595 140.758C190.837 143.694 182.426 145.161 171.362 145.161ZM161.54 128.734C166.282 128.734 171.023 128.396 175.765 127.718C180.507 127.041 184.684 126.081 188.297 124.839C189.539 119.646 190.329 115.074 190.668 111.122C191.12 107.171 191.345 102.937 191.345 98.421C191.345 89.5019 190.612 81.3167 189.144 73.8654C187.676 66.4141 185.531 59.6966 182.709 53.7129C175.37 60.4868 169.104 67.9946 163.911 76.2363C158.717 84.365 154.71 92.8325 151.887 101.639C149.178 110.445 147.823 119.082 147.823 127.549C149.855 128.001 152 128.339 154.258 128.565C156.629 128.678 159.056 128.734 161.54 128.734Z" stroke="black" stroke-width="12" mask="url(#path-1-outside-1_160_1910)"/>
<path d="M275.997 145.5C272.046 145.5 267.36 145.331 261.941 144.992C256.522 144.653 251.385 144.145 246.531 143.468L236.878 34.4071C240.378 33.2782 244.781 32.1492 250.087 31.0202C255.506 29.8912 261.264 28.9315 267.36 28.1412C273.457 27.2381 279.271 26.7865 284.803 26.7865C290.787 26.7865 296.714 27.4074 302.585 28.6493C308.569 29.8912 313.931 31.9798 318.673 34.9152C319.689 37.9635 320.423 40.8988 320.875 43.7213C321.326 46.4309 321.552 49.0276 321.552 51.5114C321.552 57.8337 320.141 63.4222 317.318 68.2769C314.609 73.0187 310.94 77.1395 306.311 80.6393C312.972 85.8327 318.052 91.5906 321.552 97.9129C325.165 104.235 326.971 109.993 326.971 115.186C326.971 120.606 325.278 125.63 321.891 130.259C318.617 134.774 313.254 138.444 305.803 141.266C298.351 144.089 288.416 145.5 275.997 145.5ZM269.393 86.2279C277.296 83.0667 283.392 78.7765 287.682 73.3574C291.972 67.9382 294.118 62.6319 294.118 57.4386C294.118 54.0516 293.327 50.4388 291.747 46.6003C290.279 42.7617 288.077 39.8263 285.142 37.7941C283.674 37.7941 281.981 38.0199 280.062 38.4715C278.255 38.8102 276.336 39.2618 274.304 39.8263L269.393 86.2279ZM281.078 133.476C281.981 133.476 283.279 133.476 284.973 133.476C286.666 133.363 288.36 133.25 290.053 133.137C291.747 132.912 292.932 132.686 293.609 132.46C294.964 129.75 296.263 126.251 297.505 121.96C298.859 117.557 299.537 112.872 299.537 107.904C299.537 104.405 299.085 100.961 298.182 97.5742C297.392 94.1872 295.98 90.9132 293.948 87.752C290.11 89.5584 285.989 91.139 281.586 92.4938C277.296 93.7356 272.892 94.8646 268.377 95.8807L264.651 130.936C267.473 131.726 270.239 132.347 272.949 132.799C275.771 133.25 278.481 133.476 281.078 133.476Z" stroke="black" stroke-width="12" mask="url(#path-1-outside-1_160_1910)"/>
<path d="M394.905 145.5C390.954 145.5 386.268 145.331 380.849 144.992C375.43 144.653 370.293 144.145 365.438 143.468L355.786 34.4071C359.285 33.2782 363.689 32.1492 368.995 31.0202C374.414 29.8912 380.172 28.9315 386.268 28.1412C392.365 27.2381 398.179 26.7865 403.711 26.7865C409.695 26.7865 415.622 27.4074 421.493 28.6493C427.477 29.8912 432.839 31.9798 437.581 34.9152C438.597 37.9635 439.331 40.8988 439.783 43.7213C440.234 46.4309 440.46 49.0276 440.46 51.5114C440.46 57.8337 439.049 63.4222 436.226 68.2769C433.517 73.0187 429.847 77.1395 425.219 80.6393C431.88 85.8327 436.96 91.5906 440.46 97.9129C444.073 104.235 445.879 109.993 445.879 115.186C445.879 120.606 444.186 125.63 440.799 130.259C437.525 134.774 432.162 138.444 424.711 141.266C417.259 144.089 407.324 145.5 394.905 145.5ZM388.301 86.2279C396.203 83.0667 402.3 78.7765 406.59 73.3574C410.88 67.9382 413.025 62.6319 413.025 57.4386C413.025 54.0516 412.235 50.4388 410.655 46.6003C409.187 42.7617 406.985 39.8263 404.05 37.7941C402.582 37.7941 400.889 38.0199 398.97 38.4715C397.163 38.8102 395.244 39.2618 393.212 39.8263L388.301 86.2279ZM399.986 133.476C400.889 133.476 402.187 133.476 403.881 133.476C405.574 133.363 407.268 133.25 408.961 133.137C410.655 132.912 411.84 132.686 412.517 132.46C413.872 129.75 415.171 126.251 416.412 121.96C417.767 117.557 418.445 112.872 418.445 107.904C418.445 104.405 417.993 100.961 417.09 97.5742C416.3 94.1872 414.888 90.9132 412.856 87.752C409.018 89.5584 404.897 91.139 400.494 92.4938C396.203 93.7356 391.8 94.8646 387.284 95.8807L383.559 130.936C386.381 131.726 389.147 132.347 391.857 132.799C394.679 133.25 397.389 133.476 399.986 133.476Z" stroke="black" stroke-width="12" mask="url(#path-1-outside-1_160_1910)"/>
<path d="M481.806 142.621L473.847 31.0202L548.53 28.6493L548.022 39.9957L512.289 44.2294L507.886 79.2846L543.957 78.9459L544.804 94.1872L506.531 91.3083L501.959 129.073L548.699 123.654L548.022 141.097L481.806 142.621Z" stroke="black" stroke-width="12" mask="url(#path-1-outside-1_160_1910)"/>
<path d="M587.559 148.718L579.43 137.71C585.188 134.436 589.083 131.388 591.116 128.565C593.148 125.743 594.164 122.807 594.164 119.759C594.164 116.485 593.317 113.38 591.624 110.445C589.93 107.396 587.841 104.348 585.358 101.3C582.874 98.2516 580.334 95.034 577.737 91.647C575.253 88.1471 573.165 84.365 571.471 80.3006C569.778 76.1234 568.931 71.551 568.931 66.5834C568.931 57.2128 571.302 49.0276 576.043 42.0278C580.898 34.9152 586.995 28.4235 594.333 22.5527L625.324 43.2133C619.227 47.0519 614.203 51.2856 610.252 55.9144C606.3 60.5433 604.325 65.6238 604.325 71.1558C604.325 74.8815 605.171 78.3814 606.865 81.6554C608.671 84.9295 610.647 88.1471 612.792 91.3083C615.05 94.3566 617.026 97.4613 618.719 100.622C620.526 103.784 621.429 107.171 621.429 110.783C621.429 119.702 618.324 127.267 612.115 133.476C606.018 139.573 597.833 144.653 587.559 148.718Z" stroke="black" stroke-width="12" mask="url(#path-1-outside-1_160_1910)"/>
<mask id="path-2-outside-2_160_1910" maskUnits="userSpaceOnUse" x="0" y="0" width="637" height="142" fill="black">
<rect fill="white" width="637" height="142"/>
<path d="M77.2797 129.254L73.3847 84.8843L37.6521 87.7632L33.5878 127.222L16.6529 128.915L7 16.4674L45.6115 13.9272L39.1763 74.7234L72.538 75.0621L67.6269 16.8061L106.238 14.2659L94.2146 127.56L77.2797 129.254Z"/>
<path d="M171.362 130.608C162.443 130.608 154.879 129.536 148.669 127.391C142.46 125.359 137.436 122.762 133.597 119.601C132.581 114.633 131.847 109.835 131.396 105.206C130.944 100.464 130.719 95.892 130.719 91.4889C130.719 81.4409 131.735 72.0703 133.767 63.377C135.799 54.6838 138.509 46.8373 141.896 39.8376C145.395 32.7249 149.234 26.6284 153.411 21.5479C157.589 16.4674 161.766 12.516 165.943 9.69349C174.41 13.1934 182.088 18.8383 188.974 26.6284C195.974 34.4184 201.506 43.8455 205.571 54.9096C209.748 65.8608 211.837 78.0539 211.837 91.4889C211.837 100.069 210.764 107.295 208.619 113.166C206.474 118.923 202.466 123.27 196.595 126.205C190.837 129.141 182.426 130.608 171.362 130.608ZM161.54 114.182C166.282 114.182 171.023 113.843 175.765 113.166C180.507 112.488 184.684 111.529 188.297 110.287C189.539 105.093 190.329 100.521 190.668 96.5694C191.12 92.6179 191.345 88.3842 191.345 83.8682C191.345 74.9492 190.612 66.764 189.144 59.3127C187.676 51.8613 185.531 45.1438 182.709 39.1602C175.37 45.9341 169.104 53.4419 163.911 61.6835C158.717 69.8123 154.71 78.2797 151.887 87.0859C149.178 95.892 147.823 104.529 147.823 112.996C149.855 113.448 152 113.787 154.258 114.012C156.629 114.125 159.056 114.182 161.54 114.182Z"/>
<path d="M275.997 130.947C272.046 130.947 267.36 130.778 261.941 130.439C256.522 130.1 251.385 129.592 246.531 128.915L236.878 19.8544C240.378 18.7254 244.781 17.5964 250.087 16.4674C255.506 15.3384 261.264 14.3788 267.36 13.5885C273.457 12.6853 279.271 12.2337 284.803 12.2337C290.787 12.2337 296.714 12.8547 302.585 14.0966C308.569 15.3384 313.931 17.4271 318.673 20.3625C319.689 23.4107 320.423 26.3461 320.875 29.1686C321.326 31.8782 321.552 34.4749 321.552 36.9586C321.552 43.281 320.141 48.8695 317.318 53.7242C314.609 58.4659 310.94 62.5867 306.311 66.0866C312.972 71.28 318.052 77.0378 321.552 83.3602C325.165 89.6825 326.971 95.4404 326.971 100.634C326.971 106.053 325.278 111.077 321.891 115.706C318.617 120.222 313.254 123.891 305.803 126.713C298.351 129.536 288.416 130.947 275.997 130.947ZM269.393 71.6751C277.296 68.5139 283.392 64.2238 287.682 58.8046C291.972 53.3855 294.118 48.0792 294.118 42.8858C294.118 39.4989 293.327 35.8861 291.747 32.0475C290.279 28.209 288.077 25.2736 285.142 23.2414C283.674 23.2414 281.981 23.4672 280.062 23.9188C278.255 24.2575 276.336 24.7091 274.304 25.2736L269.393 71.6751ZM281.078 118.923C281.981 118.923 283.279 118.923 284.973 118.923C286.666 118.811 288.36 118.698 290.053 118.585C291.747 118.359 292.932 118.133 293.609 117.907C294.964 115.198 296.263 111.698 297.505 107.408C298.859 103.005 299.537 98.3193 299.537 93.3518C299.537 89.8519 299.085 86.4085 298.182 83.0215C297.392 79.6345 295.98 76.3604 293.948 73.1993C290.11 75.0056 285.989 76.5862 281.586 77.941C277.296 79.1829 272.892 80.3119 268.377 81.328L264.651 116.383C267.473 117.173 270.239 117.794 272.949 118.246C275.771 118.698 278.481 118.923 281.078 118.923Z"/>
<path d="M394.905 130.947C390.954 130.947 386.268 130.778 380.849 130.439C375.43 130.1 370.293 129.592 365.438 128.915L355.786 19.8544C359.285 18.7254 363.689 17.5964 368.995 16.4674C374.414 15.3384 380.172 14.3788 386.268 13.5885C392.365 12.6853 398.179 12.2337 403.711 12.2337C409.695 12.2337 415.622 12.8547 421.493 14.0966C427.477 15.3384 432.839 17.4271 437.581 20.3625C438.597 23.4107 439.331 26.3461 439.783 29.1686C440.234 31.8782 440.46 34.4749 440.46 36.9586C440.46 43.281 439.049 48.8695 436.226 53.7242C433.517 58.4659 429.847 62.5867 425.219 66.0866C431.88 71.28 436.96 77.0378 440.46 83.3602C444.073 89.6825 445.879 95.4404 445.879 100.634C445.879 106.053 444.186 111.077 440.799 115.706C437.525 120.222 432.162 123.891 424.711 126.713C417.259 129.536 407.324 130.947 394.905 130.947ZM388.301 71.6751C396.203 68.5139 402.3 64.2238 406.59 58.8046C410.88 53.3855 413.025 48.0792 413.025 42.8858C413.025 39.4989 412.235 35.8861 410.655 32.0475C409.187 28.209 406.985 25.2736 404.05 23.2414C402.582 23.2414 400.889 23.4672 398.97 23.9188C397.163 24.2575 395.244 24.7091 393.212 25.2736L388.301 71.6751ZM399.986 118.923C400.889 118.923 402.187 118.923 403.881 118.923C405.574 118.811 407.268 118.698 408.961 118.585C410.655 118.359 411.84 118.133 412.517 117.907C413.872 115.198 415.171 111.698 416.412 107.408C417.767 103.005 418.445 98.3193 418.445 93.3518C418.445 89.8519 417.993 86.4085 417.09 83.0215C416.3 79.6345 414.888 76.3604 412.856 73.1993C409.018 75.0056 404.897 76.5862 400.494 77.941C396.203 79.1829 391.8 80.3119 387.284 81.328L383.559 116.383C386.381 117.173 389.147 117.794 391.857 118.246C394.679 118.698 397.389 118.923 399.986 118.923Z"/>
<path d="M481.806 128.068L473.847 16.4674L548.53 14.0966L548.022 25.4429L512.289 29.6766L507.886 64.7318L543.957 64.3931L544.804 79.6345L506.531 76.7556L501.959 114.52L548.699 109.101L548.022 126.544L481.806 128.068Z"/>
<path d="M587.559 134.165L579.43 123.157C585.188 119.883 589.083 116.835 591.116 114.012C593.148 111.19 594.164 108.254 594.164 105.206C594.164 101.932 593.317 98.8274 591.624 95.892C589.93 92.8437 587.841 89.7954 585.358 86.7472C582.874 83.6989 580.334 80.4813 577.737 77.0943C575.253 73.5944 573.165 69.8123 571.471 65.7479C569.778 61.5706 568.931 56.9982 568.931 52.0307C568.931 42.66 571.302 34.4749 576.043 27.4751C580.898 20.3625 586.995 13.8708 594.333 8L625.324 28.6605C619.227 32.4991 614.203 36.7328 610.252 41.3617C606.3 45.9906 604.325 51.071 604.325 56.6031C604.325 60.3288 605.171 63.8286 606.865 67.1027C608.671 70.3768 610.647 73.5944 612.792 76.7556C615.05 79.8039 617.026 82.9086 618.719 86.0698C620.526 89.2309 621.429 92.6179 621.429 96.2307C621.429 105.15 618.324 112.714 612.115 118.923C606.018 125.02 597.833 130.1 587.559 134.165Z"/>
</mask>
<path d="M77.2797 129.254L73.3847 84.8843L37.6521 87.7632L33.5878 127.222L16.6529 128.915L7 16.4674L45.6115 13.9272L39.1763 74.7234L72.538 75.0621L67.6269 16.8061L106.238 14.2659L94.2146 127.56L77.2797 129.254Z" fill="#E29344"/>
<path d="M171.362 130.608C162.443 130.608 154.879 129.536 148.669 127.391C142.46 125.359 137.436 122.762 133.597 119.601C132.581 114.633 131.847 109.835 131.396 105.206C130.944 100.464 130.719 95.892 130.719 91.4889C130.719 81.4409 131.735 72.0703 133.767 63.377C135.799 54.6838 138.509 46.8373 141.896 39.8376C145.395 32.7249 149.234 26.6284 153.411 21.5479C157.589 16.4674 161.766 12.516 165.943 9.69349C174.41 13.1934 182.088 18.8383 188.974 26.6284C195.974 34.4184 201.506 43.8455 205.571 54.9096C209.748 65.8608 211.837 78.0539 211.837 91.4889C211.837 100.069 210.764 107.295 208.619 113.166C206.474 118.923 202.466 123.27 196.595 126.205C190.837 129.141 182.426 130.608 171.362 130.608ZM161.54 114.182C166.282 114.182 171.023 113.843 175.765 113.166C180.507 112.488 184.684 111.529 188.297 110.287C189.539 105.093 190.329 100.521 190.668 96.5694C191.12 92.6179 191.345 88.3842 191.345 83.8682C191.345 74.9492 190.612 66.764 189.144 59.3127C187.676 51.8613 185.531 45.1438 182.709 39.1602C175.37 45.9341 169.104 53.4419 163.911 61.6835C158.717 69.8123 154.71 78.2797 151.887 87.0859C149.178 95.892 147.823 104.529 147.823 112.996C149.855 113.448 152 113.787 154.258 114.012C156.629 114.125 159.056 114.182 161.54 114.182Z" fill="#E29344"/>
<path d="M275.997 130.947C272.046 130.947 267.36 130.778 261.941 130.439C256.522 130.1 251.385 129.592 246.531 128.915L236.878 19.8544C240.378 18.7254 244.781 17.5964 250.087 16.4674C255.506 15.3384 261.264 14.3788 267.36 13.5885C273.457 12.6853 279.271 12.2337 284.803 12.2337C290.787 12.2337 296.714 12.8547 302.585 14.0966C308.569 15.3384 313.931 17.4271 318.673 20.3625C319.689 23.4107 320.423 26.3461 320.875 29.1686C321.326 31.8782 321.552 34.4749 321.552 36.9586C321.552 43.281 320.141 48.8695 317.318 53.7242C314.609 58.4659 310.94 62.5867 306.311 66.0866C312.972 71.28 318.052 77.0378 321.552 83.3602C325.165 89.6825 326.971 95.4404 326.971 100.634C326.971 106.053 325.278 111.077 321.891 115.706C318.617 120.222 313.254 123.891 305.803 126.713C298.351 129.536 288.416 130.947 275.997 130.947ZM269.393 71.6751C277.296 68.5139 283.392 64.2238 287.682 58.8046C291.972 53.3855 294.118 48.0792 294.118 42.8858C294.118 39.4989 293.327 35.8861 291.747 32.0475C290.279 28.209 288.077 25.2736 285.142 23.2414C283.674 23.2414 281.981 23.4672 280.062 23.9188C278.255 24.2575 276.336 24.7091 274.304 25.2736L269.393 71.6751ZM281.078 118.923C281.981 118.923 283.279 118.923 284.973 118.923C286.666 118.811 288.36 118.698 290.053 118.585C291.747 118.359 292.932 118.133 293.609 117.907C294.964 115.198 296.263 111.698 297.505 107.408C298.859 103.005 299.537 98.3193 299.537 93.3518C299.537 89.8519 299.085 86.4085 298.182 83.0215C297.392 79.6345 295.98 76.3604 293.948 73.1993C290.11 75.0056 285.989 76.5862 281.586 77.941C277.296 79.1829 272.892 80.3119 268.377 81.328L264.651 116.383C267.473 117.173 270.239 117.794 272.949 118.246C275.771 118.698 278.481 118.923 281.078 118.923Z" fill="#E29344"/>
<path d="M394.905 130.947C390.954 130.947 386.268 130.778 380.849 130.439C375.43 130.1 370.293 129.592 365.438 128.915L355.786 19.8544C359.285 18.7254 363.689 17.5964 368.995 16.4674C374.414 15.3384 380.172 14.3788 386.268 13.5885C392.365 12.6853 398.179 12.2337 403.711 12.2337C409.695 12.2337 415.622 12.8547 421.493 14.0966C427.477 15.3384 432.839 17.4271 437.581 20.3625C438.597 23.4107 439.331 26.3461 439.783 29.1686C440.234 31.8782 440.46 34.4749 440.46 36.9586C440.46 43.281 439.049 48.8695 436.226 53.7242C433.517 58.4659 429.847 62.5867 425.219 66.0866C431.88 71.28 436.96 77.0378 440.46 83.3602C444.073 89.6825 445.879 95.4404 445.879 100.634C445.879 106.053 444.186 111.077 440.799 115.706C437.525 120.222 432.162 123.891 424.711 126.713C417.259 129.536 407.324 130.947 394.905 130.947ZM388.301 71.6751C396.203 68.5139 402.3 64.2238 406.59 58.8046C410.88 53.3855 413.025 48.0792 413.025 42.8858C413.025 39.4989 412.235 35.8861 410.655 32.0475C409.187 28.209 406.985 25.2736 404.05 23.2414C402.582 23.2414 400.889 23.4672 398.97 23.9188C397.163 24.2575 395.244 24.7091 393.212 25.2736L388.301 71.6751ZM399.986 118.923C400.889 118.923 402.187 118.923 403.881 118.923C405.574 118.811 407.268 118.698 408.961 118.585C410.655 118.359 411.84 118.133 412.517 117.907C413.872 115.198 415.171 111.698 416.412 107.408C417.767 103.005 418.445 98.3193 418.445 93.3518C418.445 89.8519 417.993 86.4085 417.09 83.0215C416.3 79.6345 414.888 76.3604 412.856 73.1993C409.018 75.0056 404.897 76.5862 400.494 77.941C396.203 79.1829 391.8 80.3119 387.284 81.328L383.559 116.383C386.381 117.173 389.147 117.794 391.857 118.246C394.679 118.698 397.389 118.923 399.986 118.923Z" fill="#E29344"/>
<path d="M481.806 128.068L473.847 16.4674L548.53 14.0966L548.022 25.4429L512.289 29.6766L507.886 64.7318L543.957 64.3931L544.804 79.6345L506.531 76.7556L501.959 114.52L548.699 109.101L548.022 126.544L481.806 128.068Z" fill="#E29344"/>
<path d="M587.559 134.165L579.43 123.157C585.188 119.883 589.083 116.835 591.116 114.012C593.148 111.19 594.164 108.254 594.164 105.206C594.164 101.932 593.317 98.8274 591.624 95.892C589.93 92.8437 587.841 89.7954 585.358 86.7472C582.874 83.6989 580.334 80.4813 577.737 77.0943C575.253 73.5944 573.165 69.8123 571.471 65.7479C569.778 61.5706 568.931 56.9982 568.931 52.0307C568.931 42.66 571.302 34.4749 576.043 27.4751C580.898 20.3625 586.995 13.8708 594.333 8L625.324 28.6605C619.227 32.4991 614.203 36.7328 610.252 41.3617C606.3 45.9906 604.325 51.071 604.325 56.6031C604.325 60.3288 605.171 63.8286 606.865 67.1027C608.671 70.3768 610.647 73.5944 612.792 76.7556C615.05 79.8039 617.026 82.9086 618.719 86.0698C620.526 89.2309 621.429 92.6179 621.429 96.2307C621.429 105.15 618.324 112.714 612.115 118.923C606.018 125.02 597.833 130.1 587.559 134.165Z" fill="#E29344"/>
<path d="M77.2797 129.254L73.3847 84.8843L37.6521 87.7632L33.5878 127.222L16.6529 128.915L7 16.4674L45.6115 13.9272L39.1763 74.7234L72.538 75.0621L67.6269 16.8061L106.238 14.2659L94.2146 127.56L77.2797 129.254Z" stroke="black" stroke-width="12" mask="url(#path-2-outside-2_160_1910)"/>
<path d="M171.362 130.608C162.443 130.608 154.879 129.536 148.669 127.391C142.46 125.359 137.436 122.762 133.597 119.601C132.581 114.633 131.847 109.835 131.396 105.206C130.944 100.464 130.719 95.892 130.719 91.4889C130.719 81.4409 131.735 72.0703 133.767 63.377C135.799 54.6838 138.509 46.8373 141.896 39.8376C145.395 32.7249 149.234 26.6284 153.411 21.5479C157.589 16.4674 161.766 12.516 165.943 9.69349C174.41 13.1934 182.088 18.8383 188.974 26.6284C195.974 34.4184 201.506 43.8455 205.571 54.9096C209.748 65.8608 211.837 78.0539 211.837 91.4889C211.837 100.069 210.764 107.295 208.619 113.166C206.474 118.923 202.466 123.27 196.595 126.205C190.837 129.141 182.426 130.608 171.362 130.608ZM161.54 114.182C166.282 114.182 171.023 113.843 175.765 113.166C180.507 112.488 184.684 111.529 188.297 110.287C189.539 105.093 190.329 100.521 190.668 96.5694C191.12 92.6179 191.345 88.3842 191.345 83.8682C191.345 74.9492 190.612 66.764 189.144 59.3127C187.676 51.8613 185.531 45.1438 182.709 39.1602C175.37 45.9341 169.104 53.4419 163.911 61.6835C158.717 69.8123 154.71 78.2797 151.887 87.0859C149.178 95.892 147.823 104.529 147.823 112.996C149.855 113.448 152 113.787 154.258 114.012C156.629 114.125 159.056 114.182 161.54 114.182Z" stroke="black" stroke-width="12" mask="url(#path-2-outside-2_160_1910)"/>
<path d="M275.997 130.947C272.046 130.947 267.36 130.778 261.941 130.439C256.522 130.1 251.385 129.592 246.531 128.915L236.878 19.8544C240.378 18.7254 244.781 17.5964 250.087 16.4674C255.506 15.3384 261.264 14.3788 267.36 13.5885C273.457 12.6853 279.271 12.2337 284.803 12.2337C290.787 12.2337 296.714 12.8547 302.585 14.0966C308.569 15.3384 313.931 17.4271 318.673 20.3625C319.689 23.4107 320.423 26.3461 320.875 29.1686C321.326 31.8782 321.552 34.4749 321.552 36.9586C321.552 43.281 320.141 48.8695 317.318 53.7242C314.609 58.4659 310.94 62.5867 306.311 66.0866C312.972 71.28 318.052 77.0378 321.552 83.3602C325.165 89.6825 326.971 95.4404 326.971 100.634C326.971 106.053 325.278 111.077 321.891 115.706C318.617 120.222 313.254 123.891 305.803 126.713C298.351 129.536 288.416 130.947 275.997 130.947ZM269.393 71.6751C277.296 68.5139 283.392 64.2238 287.682 58.8046C291.972 53.3855 294.118 48.0792 294.118 42.8858C294.118 39.4989 293.327 35.8861 291.747 32.0475C290.279 28.209 288.077 25.2736 285.142 23.2414C283.674 23.2414 281.981 23.4672 280.062 23.9188C278.255 24.2575 276.336 24.7091 274.304 25.2736L269.393 71.6751ZM281.078 118.923C281.981 118.923 283.279 118.923 284.973 118.923C286.666 118.811 288.36 118.698 290.053 118.585C291.747 118.359 292.932 118.133 293.609 117.907C294.964 115.198 296.263 111.698 297.505 107.408C298.859 103.005 299.537 98.3193 299.537 93.3518C299.537 89.8519 299.085 86.4085 298.182 83.0215C297.392 79.6345 295.98 76.3604 293.948 73.1993C290.11 75.0056 285.989 76.5862 281.586 77.941C277.296 79.1829 272.892 80.3119 268.377 81.328L264.651 116.383C267.473 117.173 270.239 117.794 272.949 118.246C275.771 118.698 278.481 118.923 281.078 118.923Z" stroke="black" stroke-width="12" mask="url(#path-2-outside-2_160_1910)"/>
<path d="M394.905 130.947C390.954 130.947 386.268 130.778 380.849 130.439C375.43 130.1 370.293 129.592 365.438 128.915L355.786 19.8544C359.285 18.7254 363.689 17.5964 368.995 16.4674C374.414 15.3384 380.172 14.3788 386.268 13.5885C392.365 12.6853 398.179 12.2337 403.711 12.2337C409.695 12.2337 415.622 12.8547 421.493 14.0966C427.477 15.3384 432.839 17.4271 437.581 20.3625C438.597 23.4107 439.331 26.3461 439.783 29.1686C440.234 31.8782 440.46 34.4749 440.46 36.9586C440.46 43.281 439.049 48.8695 436.226 53.7242C433.517 58.4659 429.847 62.5867 425.219 66.0866C431.88 71.28 436.96 77.0378 440.46 83.3602C444.073 89.6825 445.879 95.4404 445.879 100.634C445.879 106.053 444.186 111.077 440.799 115.706C437.525 120.222 432.162 123.891 424.711 126.713C417.259 129.536 407.324 130.947 394.905 130.947ZM388.301 71.6751C396.203 68.5139 402.3 64.2238 406.59 58.8046C410.88 53.3855 413.025 48.0792 413.025 42.8858C413.025 39.4989 412.235 35.8861 410.655 32.0475C409.187 28.209 406.985 25.2736 404.05 23.2414C402.582 23.2414 400.889 23.4672 398.97 23.9188C397.163 24.2575 395.244 24.7091 393.212 25.2736L388.301 71.6751ZM399.986 118.923C400.889 118.923 402.187 118.923 403.881 118.923C405.574 118.811 407.268 118.698 408.961 118.585C410.655 118.359 411.84 118.133 412.517 117.907C413.872 115.198 415.171 111.698 416.412 107.408C417.767 103.005 418.445 98.3193 418.445 93.3518C418.445 89.8519 417.993 86.4085 417.09 83.0215C416.3 79.6345 414.888 76.3604 412.856 73.1993C409.018 75.0056 404.897 76.5862 400.494 77.941C396.203 79.1829 391.8 80.3119 387.284 81.328L383.559 116.383C386.381 117.173 389.147 117.794 391.857 118.246C394.679 118.698 397.389 118.923 399.986 118.923Z" stroke="black" stroke-width="12" mask="url(#path-2-outside-2_160_1910)"/>
<path d="M481.806 128.068L473.847 16.4674L548.53 14.0966L548.022 25.4429L512.289 29.6766L507.886 64.7318L543.957 64.3931L544.804 79.6345L506.531 76.7556L501.959 114.52L548.699 109.101L548.022 126.544L481.806 128.068Z" stroke="black" stroke-width="12" mask="url(#path-2-outside-2_160_1910)"/>
<path d="M587.559 134.165L579.43 123.157C585.188 119.883 589.083 116.835 591.116 114.012C593.148 111.19 594.164 108.254 594.164 105.206C594.164 101.932 593.317 98.8274 591.624 95.892C589.93 92.8437 587.841 89.7954 585.358 86.7472C582.874 83.6989 580.334 80.4813 577.737 77.0943C575.253 73.5944 573.165 69.8123 571.471 65.7479C569.778 61.5706 568.931 56.9982 568.931 52.0307C568.931 42.66 571.302 34.4749 576.043 27.4751C580.898 20.3625 586.995 13.8708 594.333 8L625.324 28.6605C619.227 32.4991 614.203 36.7328 610.252 41.3617C606.3 45.9906 604.325 51.071 604.325 56.6031C604.325 60.3288 605.171 63.8286 606.865 67.1027C608.671 70.3768 610.647 73.5944 612.792 76.7556C615.05 79.8039 617.026 82.9086 618.719 86.0698C620.526 89.2309 621.429 92.6179 621.429 96.2307C621.429 105.15 618.324 112.714 612.115 118.923C606.018 125.02 597.833 130.1 587.559 134.165Z" stroke="black" stroke-width="12" mask="url(#path-2-outside-2_160_1910)"/>
<mask id="path-3-outside-3_160_1910" maskUnits="userSpaceOnUse" x="13.2266" y="0" width="637" height="142" fill="black">
<rect fill="white" x="13.2266" width="637" height="142"/>
<path d="M90.5063 129.254L86.6113 84.8843L50.8787 87.7632L46.8143 127.222L29.8794 128.915L20.2266 16.4674L58.8381 13.9272L52.4028 74.7234L85.7645 75.0621L80.8534 16.8061L119.465 14.2659L107.441 127.56L90.5063 129.254Z"/>
<path d="M184.589 130.608C175.67 130.608 168.105 129.536 161.896 127.391C155.687 125.359 150.663 122.762 146.824 119.601C145.808 114.633 145.074 109.835 144.622 105.206C144.171 100.464 143.945 95.892 143.945 91.4889C143.945 81.4409 144.961 72.0703 146.993 63.377C149.026 54.6838 151.735 46.8373 155.122 39.8376C158.622 32.7249 162.461 26.6284 166.638 21.5479C170.815 16.4674 174.992 12.516 179.17 9.69349C187.637 13.1934 195.314 18.8383 202.201 26.6284C209.201 34.4184 214.733 43.8455 218.797 54.9096C222.974 65.8608 225.063 78.0539 225.063 91.4889C225.063 100.069 223.991 107.295 221.845 113.166C219.7 118.923 215.692 123.27 209.822 126.205C204.064 129.141 195.653 130.608 184.589 130.608ZM174.767 114.182C179.508 114.182 184.25 113.843 188.992 113.166C193.734 112.488 197.911 111.529 201.524 110.287C202.766 105.093 203.556 100.521 203.895 96.5694C204.346 92.6179 204.572 88.3842 204.572 83.8682C204.572 74.9492 203.838 66.764 202.37 59.3127C200.903 51.8613 198.758 45.1438 195.935 39.1602C188.597 45.9341 182.331 53.4419 177.137 61.6835C171.944 69.8123 167.936 78.2797 165.114 87.0859C162.404 95.892 161.049 104.529 161.049 112.996C163.081 113.448 165.227 113.787 167.485 114.012C169.855 114.125 172.283 114.182 174.767 114.182Z"/>
<path d="M289.224 130.947C285.272 130.947 280.587 130.778 275.168 130.439C269.749 130.1 264.612 129.592 259.757 128.915L250.104 19.8544C253.604 18.7254 258.007 17.5964 263.313 16.4674C268.733 15.3384 274.49 14.3788 280.587 13.5885C286.684 12.6853 292.498 12.2337 298.03 12.2337C304.014 12.2337 309.941 12.8547 315.812 14.0966C321.795 15.3384 327.158 17.4271 331.9 20.3625C332.916 23.4107 333.65 26.3461 334.101 29.1686C334.553 31.8782 334.779 34.4749 334.779 36.9586C334.779 43.281 333.367 48.8695 330.545 53.7242C327.835 58.4659 324.166 62.5867 319.537 66.0866C326.198 71.28 331.279 77.0378 334.779 83.3602C338.391 89.6825 340.198 95.4404 340.198 100.634C340.198 106.053 338.504 111.077 335.117 115.706C331.843 120.222 326.48 123.891 319.029 126.713C311.578 129.536 301.643 130.947 289.224 130.947ZM282.619 71.6751C290.522 68.5139 296.619 64.2238 300.909 58.8046C305.199 53.3855 307.344 48.0792 307.344 42.8858C307.344 39.4989 306.554 35.8861 304.973 32.0475C303.506 28.209 301.304 25.2736 298.369 23.2414C296.901 23.2414 295.207 23.4672 293.288 23.9188C291.482 24.2575 289.562 24.7091 287.53 25.2736L282.619 71.6751ZM294.304 118.923C295.207 118.923 296.506 118.923 298.199 118.923C299.893 118.811 301.586 118.698 303.28 118.585C304.973 118.359 306.159 118.133 306.836 117.907C308.191 115.198 309.489 111.698 310.731 107.408C312.086 103.005 312.763 98.3193 312.763 93.3518C312.763 89.8519 312.312 86.4085 311.408 83.0215C310.618 79.6345 309.207 76.3604 307.175 73.1993C303.336 75.0056 299.215 76.5862 294.812 77.941C290.522 79.1829 286.119 80.3119 281.603 81.328L277.877 116.383C280.7 117.173 283.466 117.794 286.176 118.246C288.998 118.698 291.708 118.923 294.304 118.923Z"/>
<path d="M408.132 130.947C404.18 130.947 399.495 130.778 394.076 130.439C388.657 130.1 383.52 129.592 378.665 128.915L369.012 19.8544C372.512 18.7254 376.915 17.5964 382.221 16.4674C387.641 15.3384 393.398 14.3788 399.495 13.5885C405.592 12.6853 411.406 12.2337 416.938 12.2337C422.922 12.2337 428.849 12.8547 434.719 14.0966C440.703 15.3384 446.066 17.4271 450.808 20.3625C451.824 23.4107 452.558 26.3461 453.009 29.1686C453.461 31.8782 453.687 34.4749 453.687 36.9586C453.687 43.281 452.275 48.8695 449.453 53.7242C446.743 58.4659 443.074 62.5867 438.445 66.0866C445.106 71.28 450.187 77.0378 453.687 83.3602C457.299 89.6825 459.106 95.4404 459.106 100.634C459.106 106.053 457.412 111.077 454.025 115.706C450.751 120.222 445.388 123.891 437.937 126.713C430.486 129.536 420.551 130.947 408.132 130.947ZM401.527 71.6751C409.43 68.5139 415.527 64.2238 419.817 58.8046C424.107 53.3855 426.252 48.0792 426.252 42.8858C426.252 39.4989 425.462 35.8861 423.881 32.0475C422.413 28.209 420.212 25.2736 417.277 23.2414C415.809 23.2414 414.115 23.4672 412.196 23.9188C410.39 24.2575 408.47 24.7091 406.438 25.2736L401.527 71.6751ZM413.212 118.923C414.115 118.923 415.414 118.923 417.107 118.923C418.801 118.811 420.494 118.698 422.188 118.585C423.881 118.359 425.067 118.133 425.744 117.907C427.099 115.198 428.397 111.698 429.639 107.408C430.994 103.005 431.671 98.3193 431.671 93.3518C431.671 89.8519 431.22 86.4085 430.316 83.0215C429.526 79.6345 428.115 76.3604 426.083 73.1993C422.244 75.0056 418.123 76.5862 413.72 77.941C409.43 79.1829 405.027 80.3119 400.511 81.328L396.785 116.383C399.608 117.173 402.374 117.794 405.083 118.246C407.906 118.698 410.615 118.923 413.212 118.923Z"/>
<path d="M495.033 128.068L487.073 16.4674L561.756 14.0966L561.248 25.4429L525.516 29.6766L521.112 64.7318L557.184 64.3931L558.03 79.6345L519.758 76.7556L515.185 114.52L561.926 109.101L561.248 126.544L495.033 128.068Z"/>
<path d="M600.786 134.165L592.657 123.157C598.415 119.883 602.31 116.835 604.342 114.012C606.374 111.19 607.39 108.254 607.39 105.206C607.39 101.932 606.544 98.8274 604.85 95.892C603.157 92.8437 601.068 89.7954 598.584 86.7472C596.1 83.6989 593.56 80.4813 590.964 77.0943C588.48 73.5944 586.391 69.8123 584.698 65.7479C583.004 61.5706 582.157 56.9982 582.157 52.0307C582.157 42.66 584.528 34.4749 589.27 27.4751C594.125 20.3625 600.221 13.8708 607.56 8L638.55 28.6605C632.454 32.4991 627.43 36.7328 623.478 41.3617C619.527 45.9906 617.551 51.071 617.551 56.6031C617.551 60.3288 618.398 63.8286 620.091 67.1027C621.898 70.3768 623.874 73.5944 626.019 76.7556C628.277 79.8039 630.252 82.9086 631.946 86.0698C633.752 89.2309 634.655 92.6179 634.655 96.2307C634.655 105.15 631.551 112.714 625.341 118.923C619.245 125.02 611.06 130.1 600.786 134.165Z"/>
</mask>
<path d="M90.5063 129.254L86.6113 84.8843L50.8787 87.7632L46.8143 127.222L29.8794 128.915L20.2266 16.4674L58.8381 13.9272L52.4028 74.7234L85.7645 75.0621L80.8534 16.8061L119.465 14.2659L107.441 127.56L90.5063 129.254Z" fill="white"/>
<path d="M184.589 130.608C175.67 130.608 168.105 129.536 161.896 127.391C155.687 125.359 150.663 122.762 146.824 119.601C145.808 114.633 145.074 109.835 144.622 105.206C144.171 100.464 143.945 95.892 143.945 91.4889C143.945 81.4409 144.961 72.0703 146.993 63.377C149.026 54.6838 151.735 46.8373 155.122 39.8376C158.622 32.7249 162.461 26.6284 166.638 21.5479C170.815 16.4674 174.992 12.516 179.17 9.69349C187.637 13.1934 195.314 18.8383 202.201 26.6284C209.201 34.4184 214.733 43.8455 218.797 54.9096C222.974 65.8608 225.063 78.0539 225.063 91.4889C225.063 100.069 223.991 107.295 221.845 113.166C219.7 118.923 215.692 123.27 209.822 126.205C204.064 129.141 195.653 130.608 184.589 130.608ZM174.767 114.182C179.508 114.182 184.25 113.843 188.992 113.166C193.734 112.488 197.911 111.529 201.524 110.287C202.766 105.093 203.556 100.521 203.895 96.5694C204.346 92.6179 204.572 88.3842 204.572 83.8682C204.572 74.9492 203.838 66.764 202.37 59.3127C200.903 51.8613 198.758 45.1438 195.935 39.1602C188.597 45.9341 182.331 53.4419 177.137 61.6835C171.944 69.8123 167.936 78.2797 165.114 87.0859C162.404 95.892 161.049 104.529 161.049 112.996C163.081 113.448 165.227 113.787 167.485 114.012C169.855 114.125 172.283 114.182 174.767 114.182Z" fill="white"/>
<path d="M289.224 130.947C285.272 130.947 280.587 130.778 275.168 130.439C269.749 130.1 264.612 129.592 259.757 128.915L250.104 19.8544C253.604 18.7254 258.007 17.5964 263.313 16.4674C268.733 15.3384 274.49 14.3788 280.587 13.5885C286.684 12.6853 292.498 12.2337 298.03 12.2337C304.014 12.2337 309.941 12.8547 315.812 14.0966C321.795 15.3384 327.158 17.4271 331.9 20.3625C332.916 23.4107 333.65 26.3461 334.101 29.1686C334.553 31.8782 334.779 34.4749 334.779 36.9586C334.779 43.281 333.367 48.8695 330.545 53.7242C327.835 58.4659 324.166 62.5867 319.537 66.0866C326.198 71.28 331.279 77.0378 334.779 83.3602C338.391 89.6825 340.198 95.4404 340.198 100.634C340.198 106.053 338.504 111.077 335.117 115.706C331.843 120.222 326.48 123.891 319.029 126.713C311.578 129.536 301.643 130.947 289.224 130.947ZM282.619 71.6751C290.522 68.5139 296.619 64.2238 300.909 58.8046C305.199 53.3855 307.344 48.0792 307.344 42.8858C307.344 39.4989 306.554 35.8861 304.973 32.0475C303.506 28.209 301.304 25.2736 298.369 23.2414C296.901 23.2414 295.207 23.4672 293.288 23.9188C291.482 24.2575 289.562 24.7091 287.53 25.2736L282.619 71.6751ZM294.304 118.923C295.207 118.923 296.506 118.923 298.199 118.923C299.893 118.811 301.586 118.698 303.28 118.585C304.973 118.359 306.159 118.133 306.836 117.907C308.191 115.198 309.489 111.698 310.731 107.408C312.086 103.005 312.763 98.3193 312.763 93.3518C312.763 89.8519 312.312 86.4085 311.408 83.0215C310.618 79.6345 309.207 76.3604 307.175 73.1993C303.336 75.0056 299.215 76.5862 294.812 77.941C290.522 79.1829 286.119 80.3119 281.603 81.328L277.877 116.383C280.7 117.173 283.466 117.794 286.176 118.246C288.998 118.698 291.708 118.923 294.304 118.923Z" fill="white"/>
<path d="M408.132 130.947C404.18 130.947 399.495 130.778 394.076 130.439C388.657 130.1 383.52 129.592 378.665 128.915L369.012 19.8544C372.512 18.7254 376.915 17.5964 382.221 16.4674C387.641 15.3384 393.398 14.3788 399.495 13.5885C405.592 12.6853 411.406 12.2337 416.938 12.2337C422.922 12.2337 428.849 12.8547 434.719 14.0966C440.703 15.3384 446.066 17.4271 450.808 20.3625C451.824 23.4107 452.558 26.3461 453.009 29.1686C453.461 31.8782 453.687 34.4749 453.687 36.9586C453.687 43.281 452.275 48.8695 449.453 53.7242C446.743 58.4659 443.074 62.5867 438.445 66.0866C445.106 71.28 450.187 77.0378 453.687 83.3602C457.299 89.6825 459.106 95.4404 459.106 100.634C459.106 106.053 457.412 111.077 454.025 115.706C450.751 120.222 445.388 123.891 437.937 126.713C430.486 129.536 420.551 130.947 408.132 130.947ZM401.527 71.6751C409.43 68.5139 415.527 64.2238 419.817 58.8046C424.107 53.3855 426.252 48.0792 426.252 42.8858C426.252 39.4989 425.462 35.8861 423.881 32.0475C422.413 28.209 420.212 25.2736 417.277 23.2414C415.809 23.2414 414.115 23.4672 412.196 23.9188C410.39 24.2575 408.47 24.7091 406.438 25.2736L401.527 71.6751ZM413.212 118.923C414.115 118.923 415.414 118.923 417.107 118.923C418.801 118.811 420.494 118.698 422.188 118.585C423.881 118.359 425.067 118.133 425.744 117.907C427.099 115.198 428.397 111.698 429.639 107.408C430.994 103.005 431.671 98.3193 431.671 93.3518C431.671 89.8519 431.22 86.4085 430.316 83.0215C429.526 79.6345 428.115 76.3604 426.083 73.1993C422.244 75.0056 418.123 76.5862 413.72 77.941C409.43 79.1829 405.027 80.3119 400.511 81.328L396.785 116.383C399.608 117.173 402.374 117.794 405.083 118.246C407.906 118.698 410.615 118.923 413.212 118.923Z" fill="white"/>
<path d="M495.033 128.068L487.073 16.4674L561.756 14.0966L561.248 25.4429L525.516 29.6766L521.112 64.7318L557.184 64.3931L558.03 79.6345L519.758 76.7556L515.185 114.52L561.926 109.101L561.248 126.544L495.033 128.068Z" fill="white"/>
<path d="M600.786 134.165L592.657 123.157C598.415 119.883 602.31 116.835 604.342 114.012C606.374 111.19 607.39 108.254 607.39 105.206C607.39 101.932 606.544 98.8274 604.85 95.892C603.157 92.8437 601.068 89.7954 598.584 86.7472C596.1 83.6989 593.56 80.4813 590.964 77.0943C588.48 73.5944 586.391 69.8123 584.698 65.7479C583.004 61.5706 582.157 56.9982 582.157 52.0307C582.157 42.66 584.528 34.4749 589.27 27.4751C594.125 20.3625 600.221 13.8708 607.56 8L638.55 28.6605C632.454 32.4991 627.43 36.7328 623.478 41.3617C619.527 45.9906 617.551 51.071 617.551 56.6031C617.551 60.3288 618.398 63.8286 620.091 67.1027C621.898 70.3768 623.874 73.5944 626.019 76.7556C628.277 79.8039 630.252 82.9086 631.946 86.0698C633.752 89.2309 634.655 92.6179 634.655 96.2307C634.655 105.15 631.551 112.714 625.341 118.923C619.245 125.02 611.06 130.1 600.786 134.165Z" fill="white"/>
<path d="M90.5063 129.254L86.6113 84.8843L50.8787 87.7632L46.8143 127.222L29.8794 128.915L20.2266 16.4674L58.8381 13.9272L52.4028 74.7234L85.7645 75.0621L80.8534 16.8061L119.465 14.2659L107.441 127.56L90.5063 129.254Z" stroke="black" stroke-width="12" mask="url(#path-3-outside-3_160_1910)"/>
<path d="M184.589 130.608C175.67 130.608 168.105 129.536 161.896 127.391C155.687 125.359 150.663 122.762 146.824 119.601C145.808 114.633 145.074 109.835 144.622 105.206C144.171 100.464 143.945 95.892 143.945 91.4889C143.945 81.4409 144.961 72.0703 146.993 63.377C149.026 54.6838 151.735 46.8373 155.122 39.8376C158.622 32.7249 162.461 26.6284 166.638 21.5479C170.815 16.4674 174.992 12.516 179.17 9.69349C187.637 13.1934 195.314 18.8383 202.201 26.6284C209.201 34.4184 214.733 43.8455 218.797 54.9096C222.974 65.8608 225.063 78.0539 225.063 91.4889C225.063 100.069 223.991 107.295 221.845 113.166C219.7 118.923 215.692 123.27 209.822 126.205C204.064 129.141 195.653 130.608 184.589 130.608ZM174.767 114.182C179.508 114.182 184.25 113.843 188.992 113.166C193.734 112.488 197.911 111.529 201.524 110.287C202.766 105.093 203.556 100.521 203.895 96.5694C204.346 92.6179 204.572 88.3842 204.572 83.8682C204.572 74.9492 203.838 66.764 202.37 59.3127C200.903 51.8613 198.758 45.1438 195.935 39.1602C188.597 45.9341 182.331 53.4419 177.137 61.6835C171.944 69.8123 167.936 78.2797 165.114 87.0859C162.404 95.892 161.049 104.529 161.049 112.996C163.081 113.448 165.227 113.787 167.485 114.012C169.855 114.125 172.283 114.182 174.767 114.182Z" stroke="black" stroke-width="12" mask="url(#path-3-outside-3_160_1910)"/>
<path d="M289.224 130.947C285.272 130.947 280.587 130.778 275.168 130.439C269.749 130.1 264.612 129.592 259.757 128.915L250.104 19.8544C253.604 18.7254 258.007 17.5964 263.313 16.4674C268.733 15.3384 274.49 14.3788 280.587 13.5885C286.684 12.6853 292.498 12.2337 298.03 12.2337C304.014 12.2337 309.941 12.8547 315.812 14.0966C321.795 15.3384 327.158 17.4271 331.9 20.3625C332.916 23.4107 333.65 26.3461 334.101 29.1686C334.553 31.8782 334.779 34.4749 334.779 36.9586C334.779 43.281 333.367 48.8695 330.545 53.7242C327.835 58.4659 324.166 62.5867 319.537 66.0866C326.198 71.28 331.279 77.0378 334.779 83.3602C338.391 89.6825 340.198 95.4404 340.198 100.634C340.198 106.053 338.504 111.077 335.117 115.706C331.843 120.222 326.48 123.891 319.029 126.713C311.578 129.536 301.643 130.947 289.224 130.947ZM282.619 71.6751C290.522 68.5139 296.619 64.2238 300.909 58.8046C305.199 53.3855 307.344 48.0792 307.344 42.8858C307.344 39.4989 306.554 35.8861 304.973 32.0475C303.506 28.209 301.304 25.2736 298.369 23.2414C296.901 23.2414 295.207 23.4672 293.288 23.9188C291.482 24.2575 289.562 24.7091 287.53 25.2736L282.619 71.6751ZM294.304 118.923C295.207 118.923 296.506 118.923 298.199 118.923C299.893 118.811 301.586 118.698 303.28 118.585C304.973 118.359 306.159 118.133 306.836 117.907C308.191 115.198 309.489 111.698 310.731 107.408C312.086 103.005 312.763 98.3193 312.763 93.3518C312.763 89.8519 312.312 86.4085 311.408 83.0215C310.618 79.6345 309.207 76.3604 307.175 73.1993C303.336 75.0056 299.215 76.5862 294.812 77.941C290.522 79.1829 286.119 80.3119 281.603 81.328L277.877 116.383C280.7 117.173 283.466 117.794 286.176 118.246C288.998 118.698 291.708 118.923 294.304 118.923Z" stroke="black" stroke-width="12" mask="url(#path-3-outside-3_160_1910)"/>
<path d="M408.132 130.947C404.18 130.947 399.495 130.778 394.076 130.439C388.657 130.1 383.52 129.592 378.665 128.915L369.012 19.8544C372.512 18.7254 376.915 17.5964 382.221 16.4674C387.641 15.3384 393.398 14.3788 399.495 13.5885C405.592 12.6853 411.406 12.2337 416.938 12.2337C422.922 12.2337 428.849 12.8547 434.719 14.0966C440.703 15.3384 446.066 17.4271 450.808 20.3625C451.824 23.4107 452.558 26.3461 453.009 29.1686C453.461 31.8782 453.687 34.4749 453.687 36.9586C453.687 43.281 452.275 48.8695 449.453 53.7242C446.743 58.4659 443.074 62.5867 438.445 66.0866C445.106 71.28 450.187 77.0378 453.687 83.3602C457.299 89.6825 459.106 95.4404 459.106 100.634C459.106 106.053 457.412 111.077 454.025 115.706C450.751 120.222 445.388 123.891 437.937 126.713C430.486 129.536 420.551 130.947 408.132 130.947ZM401.527 71.6751C409.43 68.5139 415.527 64.2238 419.817 58.8046C424.107 53.3855 426.252 48.0792 426.252 42.8858C426.252 39.4989 425.462 35.8861 423.881 32.0475C422.413 28.209 420.212 25.2736 417.277 23.2414C415.809 23.2414 414.115 23.4672 412.196 23.9188C410.39 24.2575 408.47 24.7091 406.438 25.2736L401.527 71.6751ZM413.212 118.923C414.115 118.923 415.414 118.923 417.107 118.923C418.801 118.811 420.494 118.698 422.188 118.585C423.881 118.359 425.067 118.133 425.744 117.907C427.099 115.198 428.397 111.698 429.639 107.408C430.994 103.005 431.671 98.3193 431.671 93.3518C431.671 89.8519 431.22 86.4085 430.316 83.0215C429.526 79.6345 428.115 76.3604 426.083 73.1993C422.244 75.0056 418.123 76.5862 413.72 77.941C409.43 79.1829 405.027 80.3119 400.511 81.328L396.785 116.383C399.608 117.173 402.374 117.794 405.083 118.246C407.906 118.698 410.615 118.923 413.212 118.923Z" stroke="black" stroke-width="12" mask="url(#path-3-outside-3_160_1910)"/>
<path d="M495.033 128.068L487.073 16.4674L561.756 14.0966L561.248 25.4429L525.516 29.6766L521.112 64.7318L557.184 64.3931L558.03 79.6345L519.758 76.7556L515.185 114.52L561.926 109.101L561.248 126.544L495.033 128.068Z" stroke="black" stroke-width="12" mask="url(#path-3-outside-3_160_1910)"/>
<path d="M600.786 134.165L592.657 123.157C598.415 119.883 602.31 116.835 604.342 114.012C606.374 111.19 607.39 108.254 607.39 105.206C607.39 101.932 606.544 98.8274 604.85 95.892C603.157 92.8437 601.068 89.7954 598.584 86.7472C596.1 83.6989 593.56 80.4813 590.964 77.0943C588.48 73.5944 586.391 69.8123 584.698 65.7479C583.004 61.5706 582.157 56.9982 582.157 52.0307C582.157 42.66 584.528 34.4749 589.27 27.4751C594.125 20.3625 600.221 13.8708 607.56 8L638.55 28.6605C632.454 32.4991 627.43 36.7328 623.478 41.3617C619.527 45.9906 617.551 51.071 617.551 56.6031C617.551 60.3288 618.398 63.8286 620.091 67.1027C621.898 70.3768 623.874 73.5944 626.019 76.7556C628.277 79.8039 630.252 82.9086 631.946 86.0698C633.752 89.2309 634.655 92.6179 634.655 96.2307C634.655 105.15 631.551 112.714 625.341 118.923C619.245 125.02 611.06 130.1 600.786 134.165Z" stroke="black" stroke-width="12" mask="url(#path-3-outside-3_160_1910)"/>
</svg>
